<svg id="Layer_1" data-name="Layer 1" xmlns="http://www.w3.org/2000/svg" viewBox="0 0 113.39 113.39"><defs><style>.cls-1,.cls-2,.cls-3{fill:none;stroke-linecap:round;stroke-linejoin:round;stroke-width:4px;}.cls-1{stroke:#cad6ee;}.cls-2{stroke:#1f3360;}.cls-3{stroke:#548ac8;}</style></defs><title>Artboard 1</title><path class="cls-1" d="M4.35,43.73V82.1a2.56,2.56,0,0,0,1.37,2.27l39.35,20.52a2.56,2.56,0,0,0,3.74-2.27V64.73a2.55,2.55,0,0,0-1.35-2.25l-39.35-21A2.56,2.56,0,0,0,4.35,43.73Z"/><path class="cls-2" d="M6.24,30l25.93-13,19.94-10a5.44,5.44,0,0,1,4.82,0L104.42,30"/><line class="cls-2" x1="79.88" y1="41.42" x2="32.17" y2="16.93"/><path class="cls-3" d="M61.06,63.57l43.23-22.35a2.32,2.32,0,0,1,3.38,2.06v18.3a2.31,2.31,0,0,1-1.25,2.06L63.19,85.93a2.32,2.32,0,0,1-3.38-2.06V65.63A2.31,2.31,0,0,1,61.06,63.57Z"/><path class="cls-3" d="M59.81,107.09v-41"/><path class="cls-3" d="M102.34,66.54l5.3,4.3a5.22,5.22,0,0,1,1.92,4V93.19"/></svg>