<svg id="Layer_1" data-name="Layer 1" xmlns="http://www.w3.org/2000/svg" viewBox="0 0 113.39 113.39"><defs><style>.cls-1,.cls-2,.cls-3,.cls-4{fill:none;stroke-linecap:round;stroke-linejoin:round;}.cls-1{stroke:#cad6ee;}.cls-1,.cls-2,.cls-3{stroke-width:8px;}.cls-2,.cls-4{stroke:#1f3360;}.cls-3{stroke:#548ac8;}.cls-4{stroke-width:7px;}</style></defs><title>Artboard 1</title><path class="cls-1" d="M19.87,47V72a1.64,1.64,0,0,0,.89,1.47L46.39,86.79a1.66,1.66,0,0,0,2.43-1.48V60.63a1.68,1.68,0,0,0-.88-1.47L22.31,45.48A1.66,1.66,0,0,0,19.87,47Z"/><path class="cls-2" d="M24.1,35,41,26.5,54,20a3.52,3.52,0,0,1,3.13,0L88.05,35"/><line class="cls-2" x1="72.06" y1="42.45" x2="40.99" y2="26.5"/><path class="cls-3" d="M59.81,59.88,88,45.32a1.51,1.51,0,0,1,2.2,1.34V58.58a1.51,1.51,0,0,1-.81,1.34L61.19,74.44A1.51,1.51,0,0,1,59,73.1V61.22A1.49,1.49,0,0,1,59.81,59.88Z"/><path class="cls-3" d="M59,88.23V61.53"/><path class="cls-3" d="M86.69,61.81l3.45,2.8a3.4,3.4,0,0,1,1.25,2.63V79.17"/><circle class="cls-4" cx="56.04" cy="55.42" r="50.9"/></svg>