<svg id="Layer_1" data-name="Layer 1" xmlns="http://www.w3.org/2000/svg" viewBox="0 0 141.73 99.21"><defs><style>.cls-1{fill:#fff;}.cls-2{fill:#548ac8;}.cls-3{fill:#cad6ee;}.cls-4{fill:#213360;}.cls-5{fill:#3e7cc0;}.cls-6{fill:#3e7dc0;}.cls-7{fill:#3e7cbf;}.cls-8{fill:#4a85c5;}.cls-9{fill:#1e2344;}.cls-10{fill:#1e2446;}.cls-11{fill:#1f2649;}.cls-12{fill:#4682c3;}.cls-13{fill:#3674b9;}.cls-14{fill:#3f7dc0;}.cls-15{fill:#1d1d1b;}</style></defs><title>Artboard 1</title><path class="cls-1" d="M31.6,79.59H1.93c-.45,0-.51-.12-.51-.53q0-29.32,0-58.67c0-.46.12-.51.52-.51q29.64,0,59.28,0c.45,0,.51.12.51.53q0,29.34,0,58.68c0,.45-.12.51-.53.51Z"/><path class="cls-2" d="M60.5,67.79a1,1,0,0,1-.82.94.83.83,0,0,0-.58,0,.89.89,0,0,1-.81-1,7.06,7.06,0,0,0,0-1.3c0-2.88,0-5.76,0-8.64a1.44,1.44,0,0,0,0-.65,4.17,4.17,0,0,0-2-2.32c-1.28-.93-2.32-.77-3.67-.1C46.94,57.6,41.21,60.3,35.5,63a3.23,3.23,0,0,1-1.18.35c-.1.12-.07.26-.07.4V77.32a.89.89,0,0,0,0,.36,1.12,1.12,0,0,1-2.22,0,2,2,0,0,0,0-.65V53.46a14.44,14.44,0,0,0,0-1.74,4.23,4.23,0,0,1,2.42-3.42Q45.11,43,55.77,37.67a6.26,6.26,0,0,1,2.26-1,1.38,1.38,0,0,0,.7,0,2.06,2.06,0,0,1,1.78,2,2.21,2.21,0,0,0,0,.77q0,4.29,0,8.57a1.77,1.77,0,0,0,0,.65c-.26,2.06-1.56,3.22-3.55,4,1.92.95,3.33,2.15,3.55,4.29a1.06,1.06,0,0,0,0,.47q0,4.95,0,9.88A1.3,1.3,0,0,0,60.5,67.79Z"/><path class="cls-3" d="M30.74,63.37v11a2.25,2.25,0,0,1-2.23,2.46,2.29,2.29,0,0,1-1-.29Q16.14,70.86,4.72,65.14A4.09,4.09,0,0,1,2.4,61.33c0-7.36,0-14.73,0-22.1a2.51,2.51,0,0,1,.55-1.71,2.1,2.1,0,0,1,2.8-.4l11.39,5.69c3.68,1.84,7.35,3.67,11,5.52a4.45,4.45,0,0,1,2.59,4.2C30.76,56.14,30.74,59.76,30.74,63.37Z"/><path class="cls-4" d="M30.38,23.46a61.45,61.45,0,0,0-6.19,2.94c-1.32.62-2.62,1.29-4,2,2.38,1.19,4.71,2.26,7,3.5,2.77,1.53,5.6,3,8.47,4.28s5.59,2.78,8.41,4.1a2.21,2.21,0,0,1,.88.83c.33.47,0,.85-.29,1.2a1,1,0,0,1-1.28.24c-1.57-.76-3.14-1.54-4.7-2.32Q28.31,35.07,18,29.9a.88.88,0,0,0-.9,0c-3.86,1.94-7.73,3.86-11.59,5.79a2,2,0,0,1-1.06.3,1.15,1.15,0,0,1-1.08-1,1.1,1.1,0,0,1,.72-1.19c2.06-1,4.1-2.09,6.16-3.13,2.95-1.48,5.9-3,8.88-4.4,1.26-.59,2.53-1.17,3.76-1.82,1.83-1,3.69-1.88,5.54-2.8a4.6,4.6,0,0,1,1.39-.44.9.9,0,0,0,.7,0,.39.39,0,0,1,.49,0,.68.68,0,0,0,.59,0,4.11,4.11,0,0,1,1.67.51l23.93,12c.9.45,1.17,1.12.73,1.8a1.06,1.06,0,0,1-1.57.4L42.52,29,32.45,24c-.4-.2-.82-.34-1.24-.5A1.24,1.24,0,0,0,30.38,23.46Z"/><path class="cls-5" d="M32.17,61.48V77.05c0,.21.07.43-.1.62,0-1.27,0-2.54,0-3.81q0-6.18,0-12.38S32.13,61.43,32.17,61.48Z"/><path class="cls-5" d="M34.29,77.68c-.16-.17-.09-.38-.09-.57q0-6.56,0-13.11c0-.21-.08-.44.12-.61V77Z"/><path class="cls-5" d="M60.5,67.79c-.14-.15-.09-.34-.09-.51V57.47c0-.18,0-.36.1-.51Q60.5,62.38,60.5,67.79Z"/><path class="cls-6" d="M58.27,57.19c.16.15.11.34.11.51v9.63c0,.16,0,.32-.09.45C58.28,64.25,58.28,60.72,58.27,57.19Z"/><path class="cls-7" d="M60.51,48.72c-.15-.14-.1-.33-.1-.5v-9c0-.17,0-.36.1-.51Z"/><path class="cls-8" d="M32.17,61.48h-.11a9.78,9.78,0,0,1,0-1.95c0-2.05,0-4.1,0-6.15,0-.06.07-.06.11,0Z"/><path class="cls-5" d="M32.17,53.38h-.11V51.72A6.14,6.14,0,0,1,32.17,53.38Z"/><path class="cls-9" d="M30.38,23.46a.69.69,0,0,1,.83,0Z"/><path class="cls-10" d="M30.49,21.19a.52.52,0,0,1-.7,0Z"/><path class="cls-7" d="M58.73,36.72a.6.6,0,0,1-.7,0Z"/><path class="cls-11" d="M31.57,21.23a.41.41,0,0,1-.59,0Z"/><path class="cls-12" d="M59.1,68.73a.43.43,0,0,1,.58,0A1.14,1.14,0,0,1,59.1,68.73Z"/><path class="cls-1" d="M58.27,48.49a3.07,3.07,0,0,1-1.91,1.94c-4.15,2-8.27,4-12.39,6l-9.28,4.52c-.36.17-.35,0-.39-.27-.1-1,0-2,0-3,0-1.36,0-2.73,0-4.09a6.91,6.91,0,0,1,.08-1.7,2.94,2.94,0,0,1,1.56-1.65Q46.82,44.77,57.71,39.3a1.21,1.21,0,0,1,.54-.22.45.45,0,0,1,.07.34V48.2A.58.58,0,0,1,58.27,48.49Z"/><path class="cls-6" d="M58.27,48.49c0-3.14,0-6.27,0-9.41.18.13.13.32.13.49v8.48C58.38,48.2,58.41,48.37,58.27,48.49Z"/><path class="cls-13" d="M34.3,53.5v7.14c-.18-.19-.1-.41-.1-.62,0-2.18,0-4.35,0-6.52C34.23,53.44,34.26,53.44,34.3,53.5Z"/><path class="cls-14" d="M34.3,53.5h-.1c.07-.56-.17-1.14.14-1.67C34.33,52.39,34.31,52.94,34.3,53.5Z"/><path class="cls-1" d="M28.49,63.17c0,3.71,0,7.42,0,11.13,0,.5-.26.21-.39.15-1.18-.57-2.36-1.15-3.53-1.74L5.89,63.33a2.1,2.1,0,0,1-1.27-2.08c0-7.16,0-14.33,0-21.49,0-.82,0-.82.7-.46L27.65,50.45A1.58,1.58,0,0,1,28.47,52c0,3.73,0,7.46,0,11.19Z"/><path class="cls-15" d="M74.47,29.64h6.89V31H76.12v4.26H81v1.37H76.12v5.79H74.47Z"/><path class="cls-15" d="M91.4,37.77a4.49,4.49,0,0,1-4.58,4.88,4.37,4.37,0,0,1-4.41-4.73c0-3.08,2-4.88,4.56-4.88S91.4,35,91.4,37.77Zm-7.3.09c0,2,1.16,3.54,2.79,3.54s2.8-1.5,2.8-3.57c0-1.56-.78-3.54-2.76-3.54S84.1,36.12,84.1,37.86Z"/><path class="cls-15" d="M93.51,36.12c0-1.09,0-2-.08-2.87h1.46l.06,1.8H95a2.75,2.75,0,0,1,2.54-2,2.36,2.36,0,0,1,.48.05v1.58a2.43,2.43,0,0,0-.57-.06,2.36,2.36,0,0,0-2.25,2.15,6,6,0,0,0-.07.78v4.9H93.51Z"/><path class="cls-15" d="M85.65,61.88c-.09-1.79-.21-3.93-.19-5.53h0c-.44,1.5-1,3.1-1.62,4.86l-2.26,6.22H80.28l-2.07-6.1c-.61-1.81-1.13-3.46-1.49-5h0c0,1.6-.14,3.74-.25,5.66L76.1,67.5H74.52l.89-12.8h2.11l2.19,6.19c.53,1.58,1,3,1.29,4.31h0c.33-1.29.78-2.69,1.35-4.31l2.28-6.19h2.11l.8,12.8H86Z"/><path class="cls-15" d="M92.17,55.72a1,1,0,0,1-1.06,1,1,1,0,0,1-1-1,1,1,0,0,1,1-1A1,1,0,0,1,92.17,55.72ZM90.31,67.5V58.31H92V67.5Z"/><path class="cls-15" d="M94.75,60.8c0-.95,0-1.73-.07-2.49h1.48l.09,1.52h0a3.38,3.38,0,0,1,3-1.73c1.28,0,3.25.76,3.25,3.91V67.5h-1.67V62.2c0-1.48-.55-2.71-2.13-2.71a2.36,2.36,0,0,0-2.24,1.7,2.33,2.33,0,0,0-.11.78V67.5H94.75Z"/><path class="cls-15" d="M113,65c0,1,0,1.79.08,2.51h-1.48l-.1-1.5h0a3.44,3.44,0,0,1-3,1.71c-1.44,0-3.17-.8-3.17-4V58.31h1.67V63.4c0,1.75.54,2.92,2.06,2.92a2.41,2.41,0,0,0,2.2-1.52,2.52,2.52,0,0,0,.15-.85V58.31H113Z"/><path class="cls-15" d="M117.78,55.67v2.64h2.39v1.27h-2.39v5c0,1.14.32,1.78,1.26,1.78a3.59,3.59,0,0,0,1-.11l.08,1.25a3.94,3.94,0,0,1-1.48.23,2.35,2.35,0,0,1-1.81-.7,3.43,3.43,0,0,1-.64-2.4v-5h-1.43V58.31h1.43V56.1Z"/><path class="cls-15" d="M122.87,63.21A3,3,0,0,0,126,66.4a5.94,5.94,0,0,0,2.54-.48l.29,1.2a7.4,7.4,0,0,1-3.06.57,4.27,4.27,0,0,1-4.52-4.63c0-2.78,1.63-5,4.31-5,3,0,3.8,2.64,3.8,4.33a6,6,0,0,1-.06.78Zm4.91-1.2c0-1.06-.44-2.72-2.32-2.72A2.78,2.78,0,0,0,122.89,62Z"/><path class="cls-15" d="M131.23,65.79a4.34,4.34,0,0,0,2.21.67c1.21,0,1.78-.61,1.78-1.37s-.47-1.24-1.71-1.69c-1.65-.59-2.43-1.5-2.43-2.6,0-1.49,1.2-2.7,3.17-2.7a4.56,4.56,0,0,1,2.27.57l-.42,1.21a3.67,3.67,0,0,0-1.88-.53c-1,0-1.54.57-1.54,1.26s.55,1.1,1.75,1.55c1.59.61,2.41,1.41,2.41,2.78,0,1.61-1.26,2.75-3.44,2.75a5.2,5.2,0,0,1-2.58-.63Z"/></svg>